<?xml version="1.0" standalone="no"?>
<svg xmlns="http://www.w3.org/2000/svg" xmlns:xlink="http://www.w3.org/1999/xlink" width="217pt" height="160pt" viewBox="0.00 0.00 216.85 160">
<g id="graph0" class="graph" transform="translate(39.131070653073934,147.8288673182392) scale(0.745282595926605)" data-name="edge_state_machine">

<polygon fill="white" stroke="none" points="-25.09,4 -25.09,-156 191.76,-156 191.76,4 -25.09,4"/>
<!-- setup -->
<g id="node1" class="node" pointer-events="visible" data-name="Setup" data-comment="setup">

<ellipse fill="none" stroke="black" cx="33.43" cy="-134.11" rx="33.07" ry="18"/>
<text text-anchor="middle" x="33.43" y="-129.91" font-family="Times,serif" font-size="14.00">Setup</text>
</g>
<!-- core_loop -->

<!-- setup&#45;&gt;core_loop -->
<g id="edge1" class="edge" data-name="Setup-&gt;Core" data-comment="setup-&gt;core_loop">

<path fill="none" stroke="black" d="M55.93,-120.5C62.69,-116.41 70.23,-111.84 77.44,-107.48"/>
<polygon fill="black" stroke="black" points="78.92,-110.68 85.67,-102.5 75.3,-104.69 78.92,-110.68"/>
<text text-anchor="middle" x="44.13" y="-101.39" font-family="Times,serif" font-size="14.00">Settings</text>
<text text-anchor="middle" x="44.13" y="-84.59" font-family="Times,serif" font-size="14.00">loaded</text>
</g>
<!-- i -->
<g id="node2" class="node" pointer-events="visible" data-name="Core" data-comment="i">

<ellipse fill="none" stroke="black" cx="108.41" cy="-88.74" rx="29.62" ry="18"/>
<text text-anchor="middle" x="108.41" y="-84.54" font-family="Times,serif" font-size="14.00">Core</text>
</g>
<!-- core_loop&#45;&gt;i -->
<g id="node3" class="node" pointer-events="visible" data-name="Idle" data-comment="core_loop-&gt;i">

<ellipse fill="none" stroke="black" cx="99.06" cy="-18.27" rx="27" ry="18"/>
<text text-anchor="middle" x="99.06" y="-14.07" font-family="Times,serif" font-size="14.00">Idle</text>
</g>
<!-- c -->
<g id="edge2" class="edge" data-name="Core-&gt;Idle" data-comment="c">

<path fill="none" stroke="black" d="M111.97,-70.54C111.74,-63.33 110.87,-54.86 109.58,-46.86"/>
<polygon fill="black" stroke="black" points="113.04,-46.33 107.71,-37.17 106.17,-47.66 113.04,-46.33"/>
<text text-anchor="middle" x="149.27" y="-46.1" font-family="Times,serif" font-size="14.00">   Server busy</text>
</g>
<g id="edge3" class="edge" data-name="Idle-&gt;Core" data-comment="c">

<path fill="none" stroke="black" d="M95.51,-36.47C95.73,-43.69 96.6,-52.16 97.89,-60.15"/>
<polygon fill="black" stroke="black" points="94.43,-60.69 99.77,-69.84 101.3,-59.36 94.43,-60.69"/>
<text text-anchor="middle" x="37.81" y="-52.51" font-family="Times,serif" font-size="14.00">                Server free</text>
</g></g>
</svg>