<?xml version="1.0" standalone="no"?>
<svg xmlns="http://www.w3.org/2000/svg" xmlns:xlink="http://www.w3.org/1999/xlink" width="248pt" height="333pt" viewBox="0.00 0.00 248.08 333.23">
<g id="graph0" class="graph" transform="translate(13.519601672071445,231.6117952019255) scale(0.6661874125460107)" data-name="mqtt">

<polygon fill="white" stroke="none" points="-4,4 -4,-329.23 244.08,-329.23 244.08,4 -4,4"/>
<!-- edge\ndevice -->
<g id="node1" class="node" pointer-events="visible" data-name="edge\ndevice">

<ellipse fill="none" stroke="black" cx="117.93" cy="-295.82" rx="37.29" ry="29.33"/>
<text text-anchor="middle" x="117.93" y="-300.02" font-family="Times,serif" font-size="14.00">edge</text>
<text text-anchor="middle" x="117.93" y="-283.22" font-family="Times,serif" font-size="14.00">device</text>
</g>
<!-- server -->
<g id="node2" class="node" pointer-events="visible" data-name="cam_target" data-comment="server">

<ellipse fill="none" stroke="black" cx="53.93" cy="-195.6" rx="53.86" ry="18"/>
<text text-anchor="middle" x="53.93" y="-191.4" font-family="Times,serif" font-size="14.00">cam_target</text>
</g>
<!-- edge\ndevice&#45;&gt;server -->
<g id="edge1" class="edge" data-name="edge\ndevice-&gt;cam_target" data-comment="edge\ndevice-&gt;server">

<path fill="none" stroke="black" d="M101.28,-269.27C92.01,-255.04 80.49,-237.36 71.14,-223.01"/>
<polygon fill="black" stroke="black" points="74.28,-221.41 65.89,-214.95 68.41,-225.24 74.28,-221.41"/>
<text text-anchor="middle" x="106.55" y="-235.8" font-family="Times,serif" font-size="14.00">publish</text>
</g>
<!-- server&#45;&gt;edge\ndevice -->
<!-- server&#45;&gt;edge\ndevice -->

<g id="node3" class="node" pointer-events="visible" data-name="plate_check" data-comment="server-&gt;edge\ndevice">

<ellipse fill="none" stroke="black" cx="182.93" cy="-195.6" rx="57.3" ry="18"/>
<text text-anchor="middle" x="182.93" y="-191.4" font-family="Times,serif" font-size="14.00">plate_check</text>
</g><g id="edge2" class="edge" data-name="edge\ndevice-&gt;plate_check" data-comment="server-&gt;edge\ndevice">

<path fill="none" stroke="black" d="M134.84,-269.27C144.25,-255.04 155.95,-237.36 165.46,-223.01"/>
<polygon fill="black" stroke="black" points="168.19,-225.21 170.79,-214.94 162.36,-221.35 168.19,-225.21"/>
<text text-anchor="middle" x="185.37" y="-235.8" font-family="Times,serif" font-size="14.00">subscribe</text>
</g>
<!-- s -->
<g id="node4" class="node" pointer-events="visible" data-name="server" data-comment="s">

<ellipse fill="none" stroke="black" cx="117.93" cy="-106.8" rx="34.75" ry="18"/>
<text text-anchor="middle" x="117.93" y="-102.6" font-family="Times,serif" font-size="14.00">server</text>
</g>
<!-- cam_target&#45;&gt;s -->
<g id="edge3" class="edge" data-name="cam_target-&gt;server" data-comment="cam_target-&gt;s">

<path fill="none" stroke="black" d="M66.27,-177.86C75.69,-165.09 88.81,-147.3 99.47,-132.83"/>
<polygon fill="black" stroke="black" points="102.05,-135.24 105.16,-125.12 96.41,-131.09 102.05,-135.24"/>
<text text-anchor="middle" x="118.37" y="-147" font-family="Times,serif" font-size="14.00">subscribe</text>
</g>
<!-- cam_target&#45;&gt;server -->
<g id="edge4" class="edge" data-name="plate_check-&gt;server" data-comment="cam_target-&gt;server">

<path fill="none" stroke="black" d="M171.61,-177.55C164.69,-167.32 155.54,-154.14 146.93,-142.8 144.35,-139.39 141.55,-135.86 138.76,-132.41"/>
<polygon fill="black" stroke="black" points="141.53,-130.26 132.47,-124.77 136.12,-134.71 141.53,-130.26"/>
<text text-anchor="middle" x="179.55" y="-147" font-family="Times,serif" font-size="14.00">publish</text>
</g>

<!-- server&#45;&gt; --><g id="node5" class="node" pointer-events="visible" data-name="cam_debug" data-comment="server-&gt;">

<ellipse fill="none" stroke="black" cx="117.93" cy="-18" rx="55.6" ry="18"/>
<text text-anchor="middle" x="117.93" y="-13.8" font-family="Times,serif" font-size="14.00">cam_debug</text>
</g>
<!-- server&#45;&gt;c -->
<g id="edge5" class="edge" data-name="server-&gt;cam_debug" data-comment="server-&gt;c">

<path fill="none" stroke="black" d="M117.93,-88.65C117.93,-76.96 117.93,-61.19 117.93,-47.62"/>
<polygon fill="black" stroke="black" points="121.43,-47.92 117.93,-37.92 114.43,-47.92 121.43,-47.92"/>
<text text-anchor="middle" x="138.55" y="-58.2" font-family="Times,serif" font-size="14.00">publish</text>
</g>
</g>
</svg>