<?xml version="1.0" standalone="no"?>
<svg xmlns="http://www.w3.org/2000/svg" xmlns:xlink="http://www.w3.org/1999/xlink" width="602pt" height="652pt" viewBox="0.00 0.00 602.44 651.8">
<g id="graph0" class="graph" transform="translate(17.162340620579457,574.4597102966666) scale(0.8681402276010436)" data-name="StateMachine">

<polygon fill="white" stroke="none" points="-4,4 -4,-647.8 598.44,-647.8 598.44,4 -4,4"/>
<!-- setup -->
<g id="node1" class="node" pointer-events="visible" data-name="setup">

<ellipse fill="none" stroke="black" cx="293.5" cy="-625.8" rx="31.34" ry="18"/>
<text text-anchor="middle" x="293.5" y="-621.6" font-family="Times,serif" font-size="14.00">setup</text>
</g>
<!-- idle -->
<g id="node2" class="node" pointer-events="visible" data-name="idle">

<ellipse fill="none" stroke="black" cx="293.5" cy="-552.8" rx="27" ry="18"/>
<text text-anchor="middle" x="293.5" y="-548.6" font-family="Times,serif" font-size="14.00">idle</text>
</g>
<!-- setup&#45;&gt;idle -->
<g id="edge1" class="edge" data-name="setup-&gt;idle">

<path fill="none" stroke="black" d="M293.5,-607.61C293.5,-600.03 293.5,-590.9 293.5,-582.34"/>
<polygon fill="black" stroke="black" points="297,-582.34 293.5,-572.34 290,-582.34 297,-582.34"/>
</g>
<!-- message detection -->
<g id="node3" class="node" pointer-events="visible" data-name="message detection">

<ellipse fill="none" stroke="black" cx="82.5" cy="-447.2" rx="81.62" ry="18"/>
<text text-anchor="middle" x="82.5" y="-443" font-family="Times,serif" font-size="14.00">message detection</text>
</g>
<!-- idle&#45;&gt;message detection -->
<g id="edge2" class="edge" data-name="idle-&gt;message detection">

<path fill="none" stroke="black" d="M266.43,-550.5C198.3,-546.96 23.92,-536.09 6.84,-516.8 -3.05,-505.62 -1.2,-495.78 6.84,-483.2 10.93,-476.81 16.51,-471.57 22.81,-467.27"/>
<polygon fill="black" stroke="black" points="24.28,-470.47 31.15,-462.4 20.75,-464.43 24.28,-470.47"/>
<text text-anchor="middle" x="34.33" y="-504.2" font-family="Times,serif" font-size="14.00">Incoming</text>
<text text-anchor="middle" x="34.33" y="-487.4" font-family="Times,serif" font-size="14.00">message</text>
</g>
<!-- plate detection -->
<g id="node4" class="node" pointer-events="visible" data-name="plate detection">

<ellipse fill="none" stroke="black" cx="234.5" cy="-358.4" rx="67.72" ry="18"/>
<text text-anchor="middle" x="234.5" y="-354.2" font-family="Times,serif" font-size="14.00">plate detection</text>
</g><g id="edge4" class="edge" data-name="message detection-&gt;idle" data-comment="plate detection">

<path fill="none" stroke="black" d="M77.16,-465.57C73.62,-480.89 71.55,-502.89 83.51,-516.8 105.23,-542.06 200.49,-549.1 254.95,-551.05"/>
<polygon fill="black" stroke="black" points="254.61,-554.55 264.72,-551.36 254.83,-547.55 254.61,-554.55"/>
<text text-anchor="middle" x="108.99" y="-504.2" font-family="Times,serif" font-size="14.00">Message</text>
<text text-anchor="middle" x="108.99" y="-487.4" font-family="Times,serif" font-size="14.00">rejected</text>
</g>
<!-- message detection&#45;&gt;plate detection -->
<g id="edge3" class="edge" data-name="message detection-&gt;plate detection">

<path fill="none" stroke="black" d="M77.7,-429.01C75.71,-417.96 75.39,-403.93 83.05,-394.4 93.31,-381.65 127.84,-373.12 161.35,-367.68"/>
<polygon fill="black" stroke="black" points="161.78,-371.15 171.14,-366.18 160.72,-364.24 161.78,-371.15"/>
<text text-anchor="middle" x="141.22" y="-398.6" font-family="Times,serif" font-size="14.00">Message accepted    </text>
</g><g id="edge5" class="edge" data-name="message detection-&gt;idle" data-comment="message detection-&gt;plate detection">

<path fill="none" stroke="black" d="M109.62,-464.5C117.48,-469.9 125.75,-476.32 132.5,-483.2 145.09,-496.04 140.35,-506.44 155.06,-516.8 184.67,-537.66 225.58,-546.11 255.24,-549.52"/>
<polygon fill="black" stroke="black" points="254.6,-552.97 264.9,-550.48 255.29,-546.01 254.6,-552.97"/>
<text text-anchor="middle" x="193.22" y="-504.2" font-family="Times,serif" font-size="14.00" style="">Transmission</text>
<text text-anchor="middle" x="193.22" y="-487.4" font-family="Times,serif" font-size="14.00" style="">reset</text>
</g>
<!-- chars detection -->
<g id="node5" class="node" pointer-events="visible" data-name="chars detection">

<ellipse fill="none" stroke="black" cx="400.5" cy="-252.8" rx="69.44" ry="18"/>
<text text-anchor="middle" x="400.5" y="-248.6" font-family="Times,serif" font-size="14.00">chars detection</text>
</g>
<!-- plate detection&#45;&gt;chars detection -->
<g id="edge6" class="edge" data-name="plate detection-&gt;chars detection">

<path fill="none" stroke="black" d="M248.02,-340.34C260.95,-325.02 281.72,-302.83 303.92,-288.8 315.82,-281.28 329.56,-275.07 342.87,-270.08"/>
<polygon fill="black" stroke="black" points="343.74,-273.49 351.99,-266.84 341.39,-266.89 343.74,-273.49"/>
<text text-anchor="middle" x="353.29" y="-309.8" font-family="Times,serif" font-size="14.00">Second image</text>
<text text-anchor="middle" x="353.29" y="-293" font-family="Times,serif" font-size="14.00">Incoming vehicle</text>
</g><g id="edge7" class="edge" data-name="plate detection-&gt;idle" data-comment="plate detection-&gt;chars detection">

<path fill="none" stroke="black" d="M229.11,-376.79C223.38,-398.2 216.45,-435.39 226.62,-465.2 235.18,-490.31 254.31,-513.79 269.92,-529.96"/>
<polygon fill="black" stroke="black" points="267.07,-532.05 276.62,-536.64 272.01,-527.1 267.07,-532.05"/>
<text text-anchor="middle" x="274.94" y="-443" font-family="Times,serif" font-size="14.00">First image         </text>
</g>
<!-- string detection -->
<g id="node6" class="node" pointer-events="visible" data-name="string detection">

<ellipse fill="none" stroke="black" cx="423.5" cy="-164" rx="70.68" ry="18"/>
<text text-anchor="middle" x="423.5" y="-159.8" font-family="Times,serif" font-size="14.00">string detection</text>
</g>
<!-- chars detection&#45;&gt;string detection -->
<g id="edge9" class="edge" data-name="chars detection-&gt;string detection">

<path fill="none" stroke="black" d="M398.35,-234.65C397.63,-224.38 397.73,-211.2 401.07,-200 401.91,-197.22 403.03,-194.44 404.34,-191.75"/>
<polygon fill="black" stroke="black" points="407.32,-193.58 409.27,-183.17 401.25,-190.09 407.32,-193.58"/>
<text text-anchor="middle" x="465.21" y="-204.2" font-family="Times,serif" font-size="14.00">Chararcters recognized</text>
</g><g id="edge8" class="edge" data-name="plate detection-&gt;idle" data-comment="chars detection-&gt;string detection">

<path fill="none" stroke="black" d="M265.54,-374.86C285.56,-386.71 309.94,-405.11 321.5,-429.2 336.54,-460.55 322.03,-500.34 308.92,-525.93"/>
<polygon fill="black" stroke="black" points="305.89,-524.18 304.2,-534.64 312.04,-527.52 305.89,-524.18"/>
<text text-anchor="middle" x="350.27" y="-451.4" font-family="Times,serif" font-size="14.00" style="">Vehicle</text>
<text text-anchor="middle" x="350.27" y="-434.6" font-family="Times,serif" font-size="14.00" style="">leaving</text>
</g>
<!-- DB Interrogation -->
<g id="node7" class="node" pointer-events="visible" data-name="DB Interrogation">

<ellipse fill="none" stroke="black" cx="477.5" cy="-91" rx="77.05" ry="18"/>
<text text-anchor="middle" x="477.5" y="-86.8" font-family="Times,serif" font-size="14.00">DB Interrogation</text>
</g>
<!-- string detection&#45;&gt;DB Interrogation -->
<g id="edge11" class="edge" data-name="string detection-&gt;DB Interrogation">

<path fill="none" stroke="black" d="M436.3,-146.17C442.66,-137.81 450.49,-127.51 457.61,-118.14"/>
<polygon fill="black" stroke="black" points="460.23,-120.48 463.5,-110.4 454.66,-116.24 460.23,-120.48"/>
</g><g id="edge10" class="edge" data-name="chars detection-&gt;idle" data-comment="string detection-&gt;DB Interrogation">

<path fill="none" stroke="black" d="M402.1,-271.22C404.79,-308.67 407.25,-398.85 376.5,-465.2 363.93,-492.32 339.37,-516.25 320.21,-532.04"/>
<polygon fill="black" stroke="black" points="318.15,-529.21 312.5,-538.18 322.51,-534.69 318.15,-529.21"/>
<text text-anchor="middle" x="453.25" y="-398.6" font-family="Times,serif" font-size="14.00">No characters found</text>
</g>
<!-- DB Interrogation&#45;&gt;idle -->
<g id="edge12" class="edge" data-name="DB Interrogation-&gt;idle">

<path fill="none" stroke="black" d="M506.3,-107.91C524.46,-120.26 544.5,-139.27 544.5,-163 544.5,-448.2 544.5,-448.2 544.5,-448.2 544.5,-538.89 402.77,-551.78 332.31,-552.59"/>
<polygon fill="black" stroke="black" points="332.34,-549.09 322.35,-552.62 332.36,-556.09 332.34,-549.09"/>
</g>
<!-- open message -->
<g id="node8" class="node" pointer-events="visible" data-name="open message">

<ellipse fill="none" stroke="black" cx="529.5" cy="-18" rx="64.87" ry="18"/>
<text text-anchor="middle" x="529.5" y="-13.8" font-family="Times,serif" font-size="14.00">open message</text>
</g>
<!-- DB Interrogation&#45;&gt;open message -->
<g id="edge13" class="edge" data-name="DB Interrogation-&gt;open message">

<path fill="none" stroke="black" d="M490.09,-72.81C496.16,-64.53 503.57,-54.41 510.32,-45.19"/>
<polygon fill="black" stroke="black" points="513.05,-47.39 516.13,-37.25 507.4,-43.25 513.05,-47.39"/>
</g>
<!-- open message&#45;&gt;idle -->
<!-- open message&#45;&gt;idle -->
<!-- open message&#45;&gt;idle -->
<!-- open message&#45;&gt;idle -->
<!-- open message&#45;&gt;idle -->
<!-- open message&#45;&gt;idle -->
<g id="edge14" class="edge" data-name="open message-&gt;idle">

<path fill="none" stroke="black" d="M551.36,-35.43C565.96,-48.43 582.5,-68 582.5,-90 582.5,-448.2 582.5,-448.2 582.5,-448.2 582.5,-485.41 566.18,-497.28 534.5,-516.8 501.35,-537.23 391.11,-546.38 331.9,-549.91"/>
<polygon fill="black" stroke="black" points="332.07,-546.39 322.28,-550.45 332.47,-553.38 332.07,-546.39"/>
</g>





</g>
</svg>