<?xml version="1.0" standalone="no"?>
<svg xmlns="http://www.w3.org/2000/svg" xmlns:xlink="http://www.w3.org/1999/xlink" width="342pt" height="571pt" viewBox="0.00 0.00 341.55 570.8">
<g id="graph0" class="graph" transform="translate(27.157488476028604,496.8386789347593) scale(0.7582079578631973)" data-name="StateMachine">

<polygon fill="white" stroke="none" points="-4,4 -4,-566.8 337.55,-566.8 337.55,4 -4,4"/>
<!-- idle -->
<g id="node2" class="node" pointer-events="visible" data-name="idle">

<ellipse fill="none" stroke="black" cx="283.61" cy="-471.8" rx="27" ry="18"/>
<text text-anchor="middle" x="283.61" y="-467.6" font-family="Times,serif" font-size="14.00">idle</text>
</g><g id="node1" class="node" pointer-events="visible" data-name="setup" data-comment="idle">

<ellipse fill="none" stroke="black" cx="283.61" cy="-544.8" rx="31.34" ry="18"/>
<text text-anchor="middle" x="283.61" y="-540.6" font-family="Times,serif" font-size="14.00">setup</text>
</g>
<!-- plate_detection -->

<!-- idle&#45;&gt;plate_detection -->
<g id="edge1" class="edge" data-name="setup-&gt;idle" data-comment="idle-&gt;plate_detection">

<path fill="none" stroke="black" d="M283.61,-526.61C283.61,-519.03 283.61,-509.9 283.61,-501.34"/>
<polygon fill="black" stroke="black" points="287.11,-501.34 283.61,-491.34 280.11,-501.34 287.11,-501.34"/>
</g>
<!-- exit -->
<g id="node3" class="node" pointer-events="visible" data-name="message detection" data-comment="exit">

<ellipse fill="none" stroke="black" cx="163.61" cy="-383" rx="81.62" ry="18"/>
<text text-anchor="middle" x="163.61" y="-378.8" font-family="Times,serif" font-size="14.00">message detection</text>
</g>
<!-- idle&#45;&gt;exit -->
<g id="edge2" class="edge" data-name="idle-&gt;message detection" data-comment="idle-&gt;exit">

<path fill="none" stroke="black" d="M256.22,-471.27C228.34,-470.1 186.29,-463.45 165.03,-435.8 159.96,-429.21 158.36,-420.62 158.4,-412.34"/>
<polygon fill="black" stroke="black" points="161.87,-412.85 159.21,-402.59 154.89,-412.27 161.87,-412.85"/>
<text text-anchor="middle" x="216.9" y="-423.2" font-family="Times,serif" font-size="14.00">Incoming message</text>
</g>
<!-- plate_detection -->
<g id="node4" class="node" pointer-events="visible" data-name="plate detection" data-comment="plate_detection">

<ellipse fill="none" stroke="black" cx="67.61" cy="-310" rx="67.72" ry="18"/>
<text text-anchor="middle" x="67.61" y="-305.8" font-family="Times,serif" font-size="14.00">plate detection</text>
</g>
<!-- message detection&#45;&gt;plate detection -->
<g id="edge3" class="edge" data-name="message detection-&gt;plate detection">

<path fill="none" stroke="black" d="M141.35,-365.53C128.74,-356.21 112.78,-344.41 98.94,-334.17"/>
<polygon fill="black" stroke="black" points="101.09,-331.41 90.97,-328.28 96.93,-337.04 101.09,-331.41"/>
</g>
<!-- chars detection -->
<g id="node5" class="node" pointer-events="visible" data-name="chars detection">

<ellipse fill="none" stroke="black" cx="104.61" cy="-237" rx="69.44" ry="18"/>
<text text-anchor="middle" x="104.61" y="-232.8" font-family="Times,serif" font-size="14.00">chars detection</text>
</g>
<!-- message detection&#45;&gt;chars detection -->
<g id="edge4" class="edge" data-name="message detection-&gt;chars detection">

<path fill="none" stroke="black" d="M162.18,-364.74C160.13,-346.1 155.36,-315.88 144.61,-292 140.16,-282.11 133.66,-272.27 127.19,-263.76"/>
<polygon fill="black" stroke="black" points="129.94,-261.59 120.96,-255.97 124.47,-265.96 129.94,-261.59"/>
</g>
<!-- string detection -->
<g id="node6" class="node" pointer-events="visible" data-name="string detection">

<ellipse fill="none" stroke="black" cx="184.61" cy="-164" rx="70.68" ry="18"/>
<text text-anchor="middle" x="184.61" y="-159.8" font-family="Times,serif" font-size="14.00">string detection</text>
</g>
<!-- message detection&#45;&gt;string detection -->
<g id="edge5" class="edge" data-name="message detection-&gt;string detection">

<path fill="none" stroke="black" d="M169.85,-364.75C171.65,-359.15 173.45,-352.87 174.61,-347 185.22,-293.45 186.07,-229.43 185.5,-193.37"/>
<polygon fill="black" stroke="black" points="189.01,-193.7 185.29,-183.78 182.01,-193.85 189.01,-193.7"/>
</g>
<!-- plate detection&#45;&gt;chars detection -->
<g id="edge6" class="edge" data-name="plate detection-&gt;chars detection">

<path fill="none" stroke="black" d="M76.57,-291.81C80.75,-283.79 85.83,-274.05 90.5,-265.07"/>
<polygon fill="black" stroke="black" points="93.52,-266.86 95.04,-256.37 87.31,-263.62 93.52,-266.86"/>
</g>
<!-- chars detection&#45;&gt;string detection -->
<g id="edge7" class="edge" data-name="chars detection-&gt;string detection">

<path fill="none" stroke="black" d="M123.17,-219.53C133.39,-210.46 146.27,-199.03 157.59,-188.98"/>
<polygon fill="black" stroke="black" points="159.59,-191.88 164.75,-182.63 154.95,-186.65 159.59,-191.88"/>
</g>
<!-- DB h -->
<g id="node7" class="node" pointer-events="visible" data-name="DB Interrogation" data-comment="DB h">

<ellipse fill="none" stroke="black" cx="216.61" cy="-91" rx="77.05" ry="18"/>
<text text-anchor="middle" x="216.61" y="-86.8" font-family="Times,serif" font-size="14.00">DB Interrogation</text>
</g>
<!-- string detection&#45;&gt;DB h -->
<g id="edge8" class="edge" data-name="string detection-&gt;DB Interrogation" data-comment="string detection-&gt;DB h">

<path fill="none" stroke="black" d="M192.36,-145.81C195.93,-137.88 200.27,-128.26 204.28,-119.36"/>
<polygon fill="black" stroke="black" points="207.4,-120.96 208.31,-110.41 201.01,-118.09 207.4,-120.96"/>
</g>

<!-- DB Interrogation&#45;&gt; --><g id="edge9" class="edge" data-name="DB Interrogation-&gt;idle" data-comment="DB Interrogation-&gt;">

<path fill="none" stroke="black" d="M245.41,-107.91C263.57,-120.26 283.61,-139.27 283.61,-163 283.61,-384 283.61,-384 283.61,-384 283.61,-403.4 283.61,-425.24 283.61,-442.16"/>
<polygon fill="black" stroke="black" points="280.11,-441.99 283.61,-451.99 287.11,-441.99 280.11,-441.99"/>
</g>

<!-- DB Interrogation&#45;&gt; --><g id="node8" class="node" pointer-events="visible" data-name="open message" data-comment="DB Interrogation-&gt;">

<ellipse fill="none" stroke="black" cx="268.61" cy="-18" rx="64.87" ry="18"/>
<text text-anchor="middle" x="268.61" y="-13.8" font-family="Times,serif" font-size="14.00">open message</text>
</g>
<!-- DB Interrogation&#45;&gt;o -->
<g id="edge10" class="edge" data-name="DB Interrogation-&gt;open message" data-comment="DB Interrogation-&gt;o">

<path fill="none" stroke="black" d="M229.2,-72.81C235.27,-64.53 242.68,-54.41 249.43,-45.19"/>
<polygon fill="black" stroke="black" points="252.16,-47.39 255.24,-37.25 246.51,-43.25 252.16,-47.39"/>
</g>

<!-- open message&#45;&gt; --><g id="edge11" class="edge" data-name="open message-&gt;idle" data-comment="open message-&gt;">

<path fill="none" stroke="black" d="M290.47,-35.43C305.07,-48.43 321.61,-68 321.61,-90 321.61,-384 321.61,-384 321.61,-384 321.61,-406.07 311.17,-428.85 301.24,-445.53"/>
<polygon fill="black" stroke="black" points="298.41,-443.46 296.03,-453.78 304.33,-447.2 298.41,-443.46"/>
</g>
</g>
</svg>